<?xml version="1.0" standalone="no"?>
<!DOCTYPE svg PUBLIC "-//W3C//DTD SVG 20010904//EN"
 "http://www.w3.org/TR/2001/REC-SVG-20010904/DTD/svg10.dtd">
<svg version="1.0" xmlns="http://www.w3.org/2000/svg"
 width="512.000000pt" height="512.000000pt" viewBox="0 0 512.000000 512.000000"
 preserveAspectRatio="xMidYMid meet">
<metadata>
Created by potrace 1.15, written by Peter Selinger 2001-2017
</metadata>
<g transform="translate(0.000000,512.000000) scale(0.100000,-0.100000)"
fill="#000000" stroke="none">
<path d="M2175 5109 c-379 -34 -605 -117 -885 -325 -121 -90 -323 -282 -386
-367 -92 -124 -179 -419 -229 -780 -31 -220 -46 -451 -55 -836 -13 -525 -13
-1559 0 -1691 21 -224 85 -377 218 -521 59 -64 62 -69 40 -73 -13 -3 -80 -17
-150 -31 -155 -31 -237 -56 -303 -93 -105 -58 -98 -113 23 -173 195 -97 737
-174 1457 -209 258 -13 1052 -13 1310 0 720 35 1262 112 1457 209 88 43 112
75 88 119 -31 55 -175 112 -385 152 -60 11 -125 24 -144 28 l-34 7 42 28 c68
45 157 143 194 215 74 141 131 433 157 802 13 198 13 321 -5 566 -14 200 -28
593 -40 1144 -13 558 -48 756 -181 1024 -85 170 -155 267 -294 406 -179 180
-276 244 -440 293 -140 42 -276 66 -515 93 -155 18 -791 27 -940 13z m595
-114 c127 -16 257 -44 337 -72 l53 -18 -148 3 c-81 2 -295 6 -477 10 -181 5
-350 4 -375 0 -25 -4 -63 -21 -85 -36 -63 -44 -77 -78 -89 -216 l-11 -121
-150 -16 c-247 -28 -538 -88 -649 -134 -20 -8 -38 -15 -41 -15 -23 0 174 226
278 317 204 181 384 256 697 292 52 6 109 13 125 15 89 10 432 5 535 -9z m338
-192 l182 -6 21 -33 c30 -49 69 -154 69 -186 0 -28 -1 -29 -37 -22 -52 10
-1123 11 -1201 1 l-63 -8 6 98 c5 69 12 105 24 123 37 52 37 52 441 46 206 -4
457 -9 558 -13z m-143 -319 c110 -9 246 -19 302 -23 57 -4 106 -10 109 -13 8
-9 -14 -430 -27 -508 -16 -95 -29 -110 -89 -110 -27 0 -130 13 -227 29 -265
43 -322 45 -617 21 -142 -12 -265 -19 -271 -16 -7 2 -25 20 -39 39 -24 31 -27
48 -41 203 -8 93 -15 212 -15 265 l0 97 43 5 c37 5 227 22 342 30 74 5 328 -4
530 -19z m-983 -316 c3 -268 3 -274 26 -306 13 -18 42 -42 65 -54 38 -20 54
-21 182 -17 282 8 505 4 740 -14 132 -10 241 -20 243 -21 1 -2 24 1 49 5 53
10 86 37 114 90 23 47 59 173 61 219 0 19 5 -28 9 -105 5 -77 6 -183 2 -235
l-5 -96 -102 12 c-152 18 -439 42 -741 60 -408 25 -710 12 -980 -42 -231 -46
-547 -141 -708 -213 -54 -24 -64 -26 -61 -13 1 10 8 73 14 142 21 227 74 475
129 603 18 41 25 46 102 79 189 81 410 132 744 171 17 2 49 5 72 6 l42 1 3
-272z m743 -1043 c22 -11 45 -31 52 -45 6 -14 27 -60 47 -102 47 -104 100
-160 200 -208 151 -73 229 -152 262 -268 20 -69 12 -86 -44 -90 -30 -2 -67 8
-137 37 -53 22 -112 43 -130 47 -19 3 -81 -3 -142 -14 -268 -50 -266 -50 -408
-6 -97 31 -196 36 -240 12 -17 -9 -50 -41 -75 -71 -87 -109 -141 -97 -157 35
-3 26 -9 45 -14 42 -20 -12 -49 -139 -49 -211 0 -87 17 -124 66 -148 67 -31
136 -15 241 57 67 45 138 78 172 78 16 0 52 -9 78 -19 88 -34 194 -45 315 -30
129 15 195 6 292 -40 63 -31 157 -119 246 -231 l33 -42 -54 35 c-77 49 -187
103 -239 117 -89 24 -139 16 -264 -45 -66 -32 -128 -55 -147 -55 -17 0 -75 14
-128 31 -131 43 -222 44 -303 5 -75 -38 -346 -241 -431 -324 -97 -95 -111
-121 -103 -188 7 -64 39 -152 67 -188 11 -14 48 -39 82 -55 35 -17 84 -52 111
-80 l49 -50 -27 -41 c-63 -96 -179 -180 -298 -217 -79 -25 -208 -22 -283 7
-185 70 -356 245 -436 446 -107 268 -148 641 -115 1054 9 113 20 300 23 417 3
116 9 217 13 223 8 13 154 36 284 45 133 10 211 -9 329 -80 166 -99 303 -145
432 -145 83 1 137 14 230 60 103 50 179 111 239 191 56 75 66 78 221 75 76 -1
109 -6 140 -21z m948 -325 c45 -11 154 -36 242 -56 255 -58 280 -67 342 -130
73 -75 71 -91 -14 -152 -95 -66 -206 -174 -236 -230 -42 -78 -42 -106 -1 -197
92 -204 130 -351 113 -441 -31 -163 -285 -449 -533 -598 -117 -70 -130 -45
-85 166 17 82 28 159 25 173 -3 13 -16 27 -29 31 -29 10 -236 7 -417 -6 -80
-5 -203 -10 -275 -9 -71 0 -206 -4 -300 -10 -326 -20 -518 -24 -579 -12 -33 6
-62 14 -65 17 -14 14 263 248 341 289 86 46 141 52 279 31 141 -21 206 -20
325 5 119 25 222 22 303 -10 29 -12 115 -61 190 -110 161 -104 192 -121 224
-121 48 0 86 75 87 171 0 76 -30 170 -103 314 -90 181 -105 226 -122 387 -18
164 -54 323 -89 389 l-23 46 87 32 c152 57 190 61 313 31z m-1008 -1811 c308
-29 516 -111 550 -219 13 -39 -5 -90 -46 -135 -111 -120 -288 -165 -649 -165
-174 0 -259 14 -345 56 -105 52 -194 176 -180 252 16 84 75 155 160 193 79 35
259 42 510 18z"/>
</g>
</svg>
